<?xml version="1.0" standalone="no"?>
<!DOCTYPE svg PUBLIC "-//W3C//DTD SVG 20010904//EN"
 "http://www.w3.org/TR/2001/REC-SVG-20010904/DTD/svg10.dtd">
<svg version="1.0" xmlns="http://www.w3.org/2000/svg"
 width="1181.000000pt" height="1181.000000pt" viewBox="0 0 1181.000000 1181.000000"
 preserveAspectRatio="xMidYMid meet">
<metadata>
Created by potrace 1.14, written by Peter Selinger 2001-2017
</metadata>
<g transform="translate(0.000000,1181.000000) scale(0.100000,-0.100000)"
fill="#000000" stroke="none">
<path d="M5390 11799 c-41 -5 -149 -18 -240 -29 -91 -12 -226 -32 -300 -46
-74 -14 -157 -29 -185 -34 -155 -26 -550 -139 -781 -224 -1408 -513 -2597
-1576 -3262 -2916 -157 -316 -262 -576 -362 -900 -317 -1027 -345 -2141 -79
-3193 218 -865 616 -1642 1205 -2352 130 -157 523 -552 689 -694 770 -658
1724 -1117 2715 -1305 433 -83 694 -105 1165 -101 507 4 842 43 1310 151 1441
334 2736 1232 3562 2469 534 801 855 1689 963 2660 26 233 29 937 5 1185 -109
1139 -544 2221 -1252 3113 -888 1119 -2161 1883 -3564 2141 -398 73 -469 79
-1019 82 -272 1 -529 -2 -570 -7z m1040 -35 c1111 -95 2198 -522 3085 -1212
369 -287 746 -662 1031 -1027 101 -128 141 -184 252 -352 462 -695 769 -1464
906 -2268 39 -230 76 -592 76 -751 l0 -100 -38 -21 c-28 -16 -169 -63 -189
-63 -2 0 -3 11 -3 23 0 14 14 37 36 56 41 38 40 51 -5 71 -31 13 -32 17 -28
55 11 90 39 145 74 145 17 0 45 63 37 84 -6 16 -55 36 -87 36 -18 0 -19 5 -15
52 5 49 3 56 -28 91 -30 35 -32 44 -27 86 4 37 1 51 -15 71 -20 25 -20 25 -42
5 -18 -16 -21 -28 -18 -70 2 -39 -2 -57 -19 -81 -12 -16 -23 -48 -25 -70 l-3
-39 -80 2 c-132 3 -202 46 -238 143 -22 59 -21 96 1 128 46 66 40 79 -65 157
-124 93 -113 56 -113 375 l0 278 43 38 c23 22 48 51 54 66 12 27 11 29 -28 49
l-41 21 4 79 c4 58 1 82 -9 90 -7 6 -13 24 -13 39 0 27 -24 58 -33 43 -3 -4
-5 -21 -5 -36 0 -28 -17 -56 -27 -45 -3 3 -8 104 -11 224 -6 226 -13 270 -57
359 -30 62 -94 140 -137 169 -33 22 -40 32 -40 59 0 38 -7 50 -37 66 -17 9
-23 21 -23 46 0 18 -5 37 -11 40 -23 15 -30 56 -14 88 19 39 19 45 -5 90 -25
46 -28 138 -5 157 23 19 18 57 -10 76 -23 15 -27 15 -51 -1 -23 -15 -26 -22
-20 -56 6 -35 4 -40 -24 -54 -26 -13 -29 -19 -23 -48 3 -17 14 -43 25 -56 10
-13 18 -36 18 -51 0 -15 7 -44 16 -65 12 -29 13 -44 5 -68 -6 -16 -11 -43 -11
-59 0 -21 -6 -31 -25 -38 -25 -9 -31 -30 -26 -88 1 -16 -7 -27 -31 -40 -49
-26 -127 -101 -156 -151 -15 -25 -29 -66 -32 -91 -4 -40 -8 -45 -32 -48 -36
-4 -55 -28 -41 -51 6 -10 12 -76 13 -152 3 -194 2 -209 -14 -209 -11 0 -16 15
-18 53 -2 38 -7 52 -18 52 -11 0 -16 -15 -18 -63 -2 -44 -7 -65 -17 -69 -8 -3
-15 -14 -15 -24 0 -13 -7 -19 -23 -19 -40 0 -39 -12 2 -31 28 -12 40 -24 44
-45 8 -43 -1 -54 -44 -54 -25 0 -42 -5 -45 -14 -9 -23 26 -85 58 -104 16 -9
32 -28 35 -42 4 -14 7 -142 8 -285 l0 -259 -104 -73 c-185 -129 -209 -164
-153 -233 16 -19 32 -43 35 -54 14 -37 -5 -86 -54 -140 -53 -59 -113 -87 -225
-108 -74 -13 -94 -5 -74 32 14 27 -2 75 -31 91 -17 9 -17 12 -3 42 14 30 14
37 0 70 -8 20 -19 37 -23 37 -41 -1 -71 -93 -38 -120 19 -16 19 -30 1 -30 -17
0 -66 -63 -66 -85 0 -8 7 -27 16 -40 26 -40 13 -53 -55 -54 -78 0 -87 -6 -61
-38 11 -14 20 -32 20 -39 0 -8 6 -14 13 -14 8 0 24 -11 36 -24 20 -21 23 -36
25 -109 l1 -84 -30 -9 c-20 -6 -31 -16 -33 -31 -3 -22 23 -56 49 -65 28 -9 15
-386 -15 -445 -20 -37 -42 -35 -58 6 l-10 26 -14 -34 c-8 -19 -12 -41 -10 -48
3 -7 1 -13 -4 -13 -6 0 -10 6 -10 14 0 8 -5 18 -11 22 -8 5 -9 -8 -4 -45 6
-44 5 -50 -9 -45 -11 4 -16 1 -16 -10 0 -11 -9 -16 -27 -17 -45 -2 -53 -4 -53
-11 0 -5 0 -13 0 -18 0 -7 6 -7 19 0 28 14 31 13 31 -14 0 -30 -16 -42 -35
-26 -8 7 -15 9 -15 5 0 -4 -7 -2 -15 5 -20 16 -19 6 2 -28 10 -17 11 -22 3
-14 -8 6 -31 12 -52 12 -21 0 -38 5 -38 10 0 6 5 10 12 10 6 0 9 2 6 5 -3 3
-13 3 -22 -1 -18 -7 -22 -39 -6 -49 6 -3 10 -11 10 -17 0 -7 -6 -6 -15 2 -12
10 -15 10 -15 -4 0 -9 5 -16 11 -16 5 0 8 -4 4 -10 -3 -5 -12 -7 -20 -3 -11 4
-17 -4 -21 -26 -4 -18 -15 -36 -25 -42 -11 -5 -19 -16 -19 -25 0 -8 -7 -17
-15 -20 -12 -5 -13 -9 -3 -21 9 -11 9 -16 -3 -24 -11 -7 -10 -13 11 -29 24
-20 25 -21 6 -35 -44 -34 -93 -8 -83 44 5 26 3 29 -25 35 -54 11 -103 7 -291
-24 -100 -16 -273 -36 -382 -45 -110 -8 -222 -22 -250 -30 -27 -8 -63 -17 -80
-20 -157 -30 -325 -122 -382 -210 -18 -28 -41 -56 -50 -63 -11 -8 -18 -26 -18
-45 l0 -32 -110 -2 c-60 -2 -117 -4 -125 -4 -38 -5 -48 2 -57 37 -10 44 -23
45 -37 2 -10 -29 -16 -34 -56 -38 -25 -3 -55 -11 -67 -18 -12 -7 -35 -12 -52
-12 -16 0 -33 -5 -37 -11 -3 -6 -18 -9 -32 -6 -17 3 -30 -1 -37 -10 -10 -14
-15 -14 -39 2 -26 17 -27 17 -40 0 -7 -10 -44 -32 -82 -50 -78 -37 -99 -33
-72 15 16 29 16 30 -3 30 -11 0 -32 -8 -46 -17 -14 -10 -39 -16 -54 -15 -27 3
-28 2 -31 -50 -3 -52 -3 -53 -40 -59 -49 -8 -61 -19 -106 -102 -54 -101 -55
-104 -29 -128 19 -17 30 -20 74 -14 54 7 138 -10 128 -25 -3 -5 -27 -12 -53
-15 -78 -10 -164 -46 -217 -90 -53 -44 -112 -83 -157 -102 -22 -10 -30 -9 -42
2 -19 20 -14 105 8 120 20 15 20 39 2 73 -8 15 -17 36 -21 47 -6 18 -8 17 -23
-10 -10 -20 -17 -66 -20 -138 -4 -93 -7 -109 -24 -118 -10 -5 -23 -7 -29 -4
-5 4 -16 2 -24 -5 -14 -12 -120 -15 -200 -4 -103 13 -134 6 -158 -35 -10 -18
-29 -32 -47 -36 -20 -4 -36 -17 -45 -36 -9 -16 -20 -29 -26 -29 -6 0 -25 -11
-43 -25 -18 -14 -36 -22 -39 -18 -4 3 -7 -1 -7 -10 0 -9 6 -17 13 -17 6 0 4
-5 -6 -11 -13 -8 -22 -7 -32 1 -15 12 -55 5 -55 -10 0 -5 -17 -12 -37 -16 -39
-7 -75 -39 -93 -82 -7 -17 -15 -22 -30 -17 -13 4 -27 -1 -42 -17 -37 -39 -96
-68 -138 -68 -21 0 -42 5 -45 10 -4 7 -13 7 -26 0 -22 -12 -21 -15 -19 69 1
42 8 78 21 102 23 46 24 72 4 89 -8 7 -15 29 -15 49 0 47 -14 71 -31 54 -9 -9
-14 -67 -16 -189 -2 -136 -6 -179 -17 -188 -7 -6 -16 -33 -20 -60 -8 -66 -20
-80 -52 -59 -13 8 -24 19 -24 24 0 19 -34 48 -45 39 -7 -6 -34 -13 -61 -16
-27 -3 -51 -10 -54 -14 -3 -5 -24 -17 -45 -26 -22 -9 -55 -23 -72 -31 -19 -9
-44 -13 -57 -9 -14 3 -28 2 -31 -4 -3 -5 -25 -10 -49 -10 -35 0 -46 5 -64 29
-17 24 -28 29 -64 29 -43 1 -128 -32 -128 -49 0 -5 -13 -9 -28 -9 -42 0 -74
-19 -109 -65 -33 -44 -36 -45 -157 -65 -33 -6 -64 -14 -70 -18 -13 -10 -146
-9 -191 1 -16 4 -55 3 -85 -2 -55 -9 -120 6 -120 27 0 5 -26 28 -58 50 -32 23
-64 48 -71 56 -12 14 -278 194 -415 280 l-59 38 6 251 c6 231 36 832 54 1072
l7 100 13 -60 c39 -177 153 -567 246 -840 68 -201 91 -257 122 -303 33 -49 95
-96 109 -82 5 5 18 10 29 10 11 0 23 13 33 35 22 54 96 387 164 745 144 751
251 1234 300 1355 l12 30 10 -25 c13 -32 4 -222 -22 -503 -11 -117 -24 -325
-30 -463 -5 -137 -19 -334 -30 -439 -32 -300 -27 -364 28 -365 9 0 26 -7 36
-15 30 -23 79 -19 105 9 37 40 43 114 71 981 29 885 32 1027 23 1036 -13 13
-93 -11 -100 -28 -3 -7 -22 -13 -42 -13 -30 -1 -42 -8 -74 -45 -21 -24 -47
-64 -57 -88 -37 -84 -217 -752 -362 -1342 -50 -203 -95 -387 -100 -409 -5 -21
-11 -36 -13 -34 -7 6 -271 891 -331 1108 -32 114 -38 127 -69 132 -21 4 -29 0
-41 -24 -12 -23 -18 -27 -29 -18 -15 12 -35 6 -35 -11 0 -6 -6 -17 -14 -24
-22 -22 -87 -420 -131 -795 -26 -227 -65 -695 -65 -780 0 -90 -2 -92 -65 -60
-22 11 -45 20 -52 20 -8 0 -24 7 -36 15 -30 19 -137 51 -221 66 -95 16 -325 6
-451 -20 -153 -31 -509 -113 -727 -167 l-96 -24 -64 30 c-35 17 -67 30 -73 30
-19 0 -155 367 -225 605 -161 554 -232 1055 -232 1650 -1 439 31 767 113 1180
178 894 602 1796 1177 2505 327 402 733 792 1107 1061 711 513 1499 859 2327
1024 227 45 499 81 713 95 94 6 188 12 210 14 81 8 576 -5 745 -20z m2755
-6374 c8 -13 -5 -13 -25 0 -13 8 -13 10 2 10 9 0 20 -4 23 -10z m-15 -19 c0
-5 -7 -14 -15 -21 -16 -14 -18 -10 -9 14 6 17 24 22 24 7z m-50 -61 c0 -5 -4
-10 -10 -10 -5 0 -10 5 -10 10 0 6 5 10 10 10 6 0 10 -4 10 -10z m-5 -40 c3
-5 1 -10 -4 -10 -6 0 -11 5 -11 10 0 6 2 10 4 10 3 0 8 -4 11 -10z m52 -19
c11 -17 10 -20 -7 -18 -10 1 -16 5 -14 9 3 4 0 8 -6 8 -6 0 -8 5 -5 10 9 15
19 12 32 -9z m-21 -47 c-3 -9 -6 -20 -6 -25 0 -6 -5 -7 -10 -4 -6 4 -18 1 -27
-7 -14 -11 -15 -11 -10 2 4 8 10 23 13 33 4 9 15 17 26 17 14 0 18 -5 14 -16z
m-86 -86 c0 -19 -2 -20 -10 -8 -13 19 -13 30 0 30 6 0 10 -10 10 -22z m-101
-97 c14 -25 1 -35 -15 -13 -16 20 -17 32 -4 32 5 0 14 -8 19 -19z m-1191 -108
c-3 -35 -5 -38 -45 -46 -59 -11 -72 -41 -60 -133 5 -33 27 -74 40 -74 4 0 5
-4 2 -10 -9 -15 -25 -12 -25 4 0 24 -18 28 -43 11 -22 -14 -167 -36 -262 -39
-38 -1 -40 0 -43 32 -7 68 76 165 192 224 58 30 181 66 224 67 21 1 23 -3 20
-36z m3096 -325 c-2 -13 -27 -187 -55 -387 l-50 -365 76 -204 c42 -112 75
-205 73 -207 -6 -6 -193 -75 -204 -75 -6 0 -43 87 -83 193 -39 105 -75 197
-79 202 -4 6 -133 121 -287 255 -154 134 -286 249 -293 255 -11 10 10 21 101
55 63 23 119 41 125 39 5 -2 92 -79 192 -171 101 -93 186 -168 189 -168 4 0
19 114 34 252 16 139 31 256 35 260 7 6 210 86 223 87 3 1 5 -9 3 -21z m-3164
-35 c0 -34 -1 -36 -16 -21 -10 10 -14 23 -9 37 10 34 25 24 25 -16z m2130
-442 c17 -46 29 -85 28 -86 -2 -1 -63 -24 -136 -50 -74 -27 -136 -54 -139 -60
-2 -7 68 -205 157 -440 88 -235 159 -429 158 -430 -2 -1 -51 -20 -109 -42
l-107 -40 -163 433 c-89 239 -167 434 -173 434 -5 0 -70 -23 -144 -50 -74 -28
-136 -50 -137 -48 -10 14 -64 172 -60 177 13 13 780 298 787 292 4 -3 21 -44
38 -90z m-1145 -435 c107 -51 178 -166 179 -290 0 -79 -22 -140 -74 -206 -16
-21 -30 -40 -30 -43 0 -2 106 -80 236 -172 129 -92 234 -169 232 -170 -2 -2
-55 -23 -118 -48 l-115 -44 -130 100 c-71 55 -163 125 -203 155 l-74 56 -55
-19 c-30 -11 -57 -24 -60 -30 -2 -7 29 -100 70 -207 l74 -196 -106 -40 c-58
-22 -109 -37 -113 -34 -3 4 -92 234 -196 512 -105 278 -193 512 -196 520 -5
12 34 30 177 82 229 85 273 97 372 97 64 1 90 -4 130 -23z m-3935 -246 c0 -5
-9 -10 -20 -10 -11 0 -20 5 -20 10 0 6 9 10 20 10 11 0 20 -4 20 -10z m-119
-63 c-13 -13 -14 5 -3 43 l7 25 3 -29 c2 -16 -1 -33 -7 -39z m3096 -494 c198
-236 372 -442 387 -460 l26 -31 -52 -20 c-29 -11 -83 -31 -119 -45 l-66 -25
-83 109 c-45 60 -88 109 -95 109 -13 0 -374 -135 -381 -143 -3 -2 0 -64 6
-138 5 -73 7 -136 2 -140 -8 -7 -225 -90 -228 -86 -5 6 -26 1189 -21 1193 6 6
246 101 258 103 4 1 169 -191 366 -426z m-1231 0 c-3 -21 -6 -65 -6 -98 l0
-60 -74 -2 c-172 -3 -311 -77 -374 -198 -82 -161 9 -459 172 -560 44 -27 58
-30 130 -30 73 0 89 4 164 39 45 22 82 45 82 52 0 17 -69 197 -80 208 -5 5
-43 -4 -92 -22 -46 -17 -89 -32 -96 -34 -8 -2 -25 29 -47 85 l-33 88 21 10
c37 15 392 147 394 146 9 -10 201 -542 198 -548 -12 -19 -177 -121 -246 -152
-147 -67 -205 -82 -319 -82 -97 0 -110 2 -172 32 -88 41 -129 75 -185 148 -61
81 -108 177 -139 286 -23 78 -26 105 -22 198 3 103 5 112 46 193 64 130 171
221 332 283 99 38 177 53 269 54 l84 1 -7 -37z m-1281 -511 c89 -42 136 -81
189 -156 132 -186 194 -430 152 -596 -34 -134 -126 -240 -269 -310 -112 -55
-193 -74 -302 -73 -190 1 -331 102 -432 306 -63 126 -85 207 -90 329 -7 135
15 217 81 305 145 192 473 287 671 195z m-1181 -331 c3 -4 19 -44 35 -88 l29
-79 -183 -68 c-100 -38 -187 -71 -192 -75 -6 -3 10 -59 40 -141 28 -74 51
-136 52 -138 1 -1 82 28 179 65 145 54 179 64 186 52 12 -19 62 -160 58 -163
-2 -2 -81 -31 -175 -67 -95 -35 -173 -69 -173 -75 0 -6 34 -101 75 -210 41
-109 73 -199 72 -200 -4 -4 -211 -83 -212 -81 -18 30 -394 1053 -388 1055 4 1
136 52 293 112 157 60 288 109 292 109 4 1 9 -3 12 -8z m4974 -130 c94 -48
129 -149 83 -239 -23 -46 -46 -67 -94 -87 -134 -56 -276 71 -238 212 15 54 42
86 93 112 53 26 107 27 156 2z m-456 -151 c21 -6 52 -23 69 -37 l31 -27 -23
-8 c-15 -6 -33 -4 -53 6 -64 29 -110 24 -152 -18 -30 -30 -34 -41 -34 -84 0
-98 95 -161 179 -118 29 16 61 56 61 78 0 8 14 19 31 25 l30 12 -7 -32 c-26
-124 -139 -180 -251 -126 -115 56 -128 241 -21 304 57 33 88 39 140 25z m-828
-345 c88 -231 101 -271 87 -277 -27 -11 -31 -9 -42 19 l-10 28 -16 -33 c-33
-67 -113 -104 -183 -83 -119 36 -174 184 -103 280 46 61 105 79 190 58 l31 -8
-28 73 c-16 40 -40 104 -54 141 l-25 68 22 8 c12 5 23 6 25 2 1 -3 49 -127
106 -276z m500 57 c32 -84 57 -155 55 -156 -2 -2 -14 -6 -25 -10 -18 -5 -23
-1 -29 21 -7 26 -8 27 -19 9 -48 -80 -115 -115 -185 -96 -58 15 -118 72 -132
123 -40 148 87 268 223 212 15 -6 17 -3 12 23 -5 24 -2 31 12 34 11 3 22 2 25
-1 3 -3 32 -75 63 -159z m-984 -217 c36 -19 58 -56 105 -179 30 -80 35 -100
24 -107 -27 -17 -35 -8 -73 96 -39 106 -71 155 -101 155 -25 0 -72 -28 -89
-52 -23 -33 -20 -88 10 -171 38 -106 39 -113 14 -120 -16 -4 -23 1 -31 21 -6
15 -33 87 -61 160 -28 73 -49 135 -47 136 2 2 13 6 25 10 16 5 22 0 30 -21
l11 -28 16 38 c12 28 28 43 59 57 52 24 70 24 108 5z m-435 -35 c0 -18 -6 -26
-23 -28 -13 -2 -25 3 -28 12 -10 26 4 48 28 44 17 -2 23 -10 23 -28z m-213
-48 l31 -29 -27 -7 c-20 -5 -34 -2 -45 9 -44 39 -172 -1 -203 -63 -12 -26 -14
-40 -6 -62 17 -52 29 -55 187 -55 169 0 189 -7 217 -81 30 -79 -5 -151 -98
-196 -98 -48 -172 -49 -228 -2 -36 31 -37 40 -8 47 13 4 31 -1 46 -14 50 -39
169 -13 223 48 26 30 30 42 25 71 -3 20 -15 45 -26 56 -19 19 -31 21 -155 18
-153 -3 -194 7 -219 57 -40 77 -7 158 83 204 78 39 158 38 203 -1z m307 -197
c60 -157 62 -174 25 -175 -6 0 -38 71 -71 158 -60 156 -60 157 -39 169 11 6
22 11 23 10 0 -1 29 -74 62 -162z"/>
<path d="M7428 11018 c-27 -22 -26 -42 4 -60 16 -10 43 -18 61 -18 66 0 144
-91 193 -226 78 -217 78 -567 -1 -863 -59 -221 -153 -407 -261 -515 -77 -77
-128 -101 -209 -94 -46 4 -61 10 -91 39 -42 41 -87 130 -111 219 -29 111 -23
294 16 480 62 295 186 612 296 755 26 33 53 75 61 93 14 32 13 36 -11 78 -22
38 -31 44 -58 44 -45 0 -89 -30 -141 -96 -119 -152 -258 -470 -310 -712 -44
-201 -41 -502 8 -695 42 -166 96 -245 214 -315 107 -63 178 -85 264 -81 63 4
83 9 132 39 75 45 181 148 240 232 97 139 184 359 227 578 42 207 28 471 -33
660 -72 224 -204 401 -333 449 -63 24 -133 27 -157 9z"/>
<path d="M5267 10884 c-23 -12 -26 -18 -17 -34 5 -10 10 -20 10 -22 0 -2 -26
-2 -57 0 -51 3 -63 0 -99 -26 -50 -37 -74 -85 -74 -149 0 -197 262 -274 340
-100 16 35 19 37 25 18 7 -24 26 -27 54 -9 18 11 15 19 -52 147 -106 203 -97
192 -130 175z m31 -148 c34 -32 37 -39 37 -90 0 -49 -4 -59 -30 -86 -63 -63
-156 -46 -195 35 -43 89 9 175 107 175 35 0 50 -6 81 -34z"/>
<path d="M4762 10618 c-56 -12 -117 -71 -132 -129 -37 -138 94 -276 229 -239
52 14 99 54 122 105 20 44 25 105 9 105 -23 0 -58 -32 -63 -58 -8 -38 -52 -80
-92 -88 -69 -13 -145 50 -145 121 0 42 34 92 76 112 33 16 38 16 81 1 41 -15
49 -15 75 -2 34 17 30 28 -20 53 -50 25 -89 30 -140 19z"/>
<path d="M4346 10544 c-19 -19 -20 -25 -3 -48 19 -26 61 -18 65 12 7 44 -32
67 -62 36z"/>
<path d="M6585 10541 c-3 -6 -17 -11 -30 -11 -12 0 -25 -7 -29 -15 -3 -9 -18
-15 -40 -15 -20 0 -41 -7 -48 -16 -7 -8 -25 -28 -40 -45 -15 -16 -34 -42 -42
-57 -31 -60 -181 -615 -347 -1282 -66 -267 -123 -492 -126 -500 -6 -16 -30 52
-93 265 -38 129 -196 668 -247 840 -31 104 -35 111 -69 118 -20 4 -27 -1 -35
-20 -7 -18 -15 -24 -28 -20 -24 6 -60 -33 -72 -77 -15 -56 -58 -327 -83 -526
-80 -616 -115 -1150 -85 -1291 9 -43 21 -61 62 -101 97 -93 100 -85 109 295 6
295 27 751 48 1087 6 85 10 173 10 194 0 58 14 34 35 -59 30 -134 141 -514
209 -712 102 -302 123 -349 179 -404 48 -47 77 -61 77 -38 0 6 6 9 13 6 8 -3
19 -2 26 2 30 19 77 221 221 961 133 682 215 1046 257 1153 14 34 17 37 26 21
13 -23 3 -247 -22 -514 -11 -113 -25 -317 -30 -455 -6 -137 -20 -338 -31 -445
-28 -273 -25 -350 14 -350 9 0 36 -10 60 -22 51 -24 83 -18 110 24 23 35 35
188 46 551 5 183 15 465 20 627 6 162 12 416 13 565 2 244 0 270 -15 273 -9 2
-19 -2 -23 -7z"/>
<path d="M4417 10434 l-27 -15 82 -159 c46 -88 89 -160 96 -160 7 0 21 5 32
12 18 11 15 19 -53 148 -106 202 -97 191 -130 174z"/>
<path d="M4267 10353 c-25 -13 -28 -19 -23 -46 12 -71 28 -228 24 -232 -2 -3
-48 34 -102 82 -90 78 -101 85 -125 77 -14 -5 -26 -15 -26 -22 0 -12 315 -275
322 -268 6 6 -29 410 -36 418 -3 3 -19 0 -34 -9z"/>
<path d="M3815 10264 c-19 -20 -16 -43 8 -58 37 -23 77 35 41 61 -23 17 -29
16 -49 -3z"/>
<path d="M3501 10169 c-161 -31 -257 -201 -205 -365 23 -76 105 -161 179 -187
174 -61 347 51 371 241 7 56 3 60 -41 40 -17 -8 -25 -19 -25 -37 -1 -37 -34
-107 -67 -137 -85 -79 -234 -70 -307 17 -41 48 -56 90 -56 154 0 159 169 264
308 191 23 -12 31 -12 55 1 36 18 26 33 -41 61 -60 25 -115 32 -171 21z"/>
<path d="M3887 10154 c-15 -8 -27 -16 -27 -18 0 -4 161 -309 166 -315 6 -6 54
17 54 26 0 5 -37 78 -83 165 l-82 156 -28 -14z"/>
<path d="M2906 9637 c-15 -11 -16 -18 -8 -33 10 -18 6 -19 -53 -19 -56 0 -68
-4 -102 -31 -110 -89 -87 -256 45 -321 40 -19 62 -24 93 -20 55 7 112 47 134
93 17 37 19 38 28 16 12 -27 18 -27 47 -4 l21 17 -83 158 c-46 86 -88 157 -94
157 -5 0 -18 -6 -28 -13z m18 -126 c40 -27 55 -57 56 -114 0 -40 -5 -53 -29
-77 -98 -99 -254 11 -201 141 27 63 115 88 174 50z"/>
<path d="M2365 9508 c-11 -6 -21 -12 -23 -13 -2 -2 11 -31 28 -64 l30 -61 -35
-21 c-39 -23 -41 -27 -22 -53 12 -17 15 -17 50 0 20 10 38 16 41 13 2 -2 34
-62 71 -132 60 -114 69 -127 89 -121 11 3 25 10 29 14 5 4 -23 68 -62 142
l-71 135 35 19 c38 20 40 25 25 55 -11 19 -11 19 -50 -1 l-40 -20 -30 60 c-32
64 -34 65 -65 48z"/>
<path d="M4597 9386 c-17 -13 -17 -25 -7 -187 25 -397 58 -751 81 -872 17 -94
16 -99 -52 -130 -34 -16 -102 -57 -152 -91 -51 -34 -98 -66 -106 -70 -15 -10
-15 -7 20 244 28 200 67 392 139 678 33 133 60 255 60 270 0 38 -27 74 -52 70
-33 -5 -56 -45 -104 -184 -123 -350 -223 -748 -293 -1153 l-19 -114 -55 -56
c-99 -103 -117 -144 -83 -196 14 -21 22 -24 56 -21 47 5 46 19 25 -182 -14
-138 -10 -215 13 -247 15 -22 115 -86 127 -81 14 5 20 36 70 353 19 122 39
251 46 287 l11 66 184 130 c101 71 187 130 192 130 5 0 12 -33 16 -72 15 -162
46 -322 71 -364 40 -68 136 -99 155 -50 5 13 14 26 21 28 14 5 16 -15 -66 638
-84 674 -142 1074 -166 1147 -5 17 -17 34 -25 37 -27 11 -88 6 -107 -8z"/>
<path d="M2144 9241 c-43 -20 -81 -60 -90 -96 -3 -12 1 -39 10 -59 22 -52 52
-61 155 -45 92 14 114 8 119 -33 6 -49 -72 -87 -126 -61 -26 13 -34 13 -58 0
l-28 -15 27 -25 c46 -42 98 -43 174 -3 72 37 96 128 49 183 -22 26 -29 28 -83
25 -172 -9 -168 -9 -171 16 -7 45 57 84 99 61 15 -8 28 -8 50 1 37 16 37 26
-3 50 -41 25 -71 25 -124 1z"/>
<path d="M1812 9208 c-7 -7 -12 -22 -12 -35 0 -31 47 -44 67 -18 17 24 16 30
-3 49 -19 19 -36 20 -52 4z"/>
<path d="M1463 9097 c-13 -5 -23 -15 -23 -20 0 -6 57 -120 127 -253 l127 -243
117 61 118 62 -15 28 -14 28 -90 -45 -89 -44 -111 212 c-62 116 -115 215 -118
218 -4 4 -17 2 -29 -4z"/>
<path d="M1883 9097 c-13 -5 -23 -15 -23 -20 0 -11 147 -296 160 -310 6 -7 41
4 58 18 3 3 -156 307 -166 316 -4 4 -17 2 -29 -4z"/>
<path d="M3681 8764 c-61 -51 -148 -233 -136 -282 7 -28 49 -89 79 -114 29
-24 67 -22 107 5 37 25 77 109 99 210 34 152 -55 260 -149 181z"/>
<path d="M8650 8418 c-66 -19 -169 -97 -231 -175 -105 -132 -195 -356 -187
-465 3 -40 5 -43 35 -46 27 -3 33 1 37 20 3 13 12 54 21 91 31 142 122 296
235 400 61 57 83 65 136 51 12 -3 31 -23 43 -44 25 -44 28 -142 9 -246 -11
-59 -13 -63 -43 -68 -69 -13 -253 -170 -348 -296 -135 -181 -188 -374 -141
-514 33 -97 124 -153 198 -122 45 19 82 71 168 234 49 92 68 120 68 100 0 -41
16 -75 45 -94 23 -15 27 -15 43 -2 9 9 23 13 29 11 19 -7 29 25 77 267 70 352
80 421 81 580 0 131 -2 150 -23 195 -53 114 -138 156 -252 123z m24 -710 c-97
-245 -277 -546 -312 -524 -17 10 -15 83 4 147 35 117 79 202 171 325 55 74
165 174 171 155 2 -5 -13 -52 -34 -103z"/>
<path d="M2533 8065 c-61 -26 -171 -234 -158 -296 9 -40 68 -114 103 -128 25
-10 35 -10 58 2 55 28 82 74 115 192 28 102 20 175 -21 217 -32 31 -50 34 -97
13z"/>
<path d="M3620 8022 c-25 -23 -35 -50 -70 -190 -88 -356 -129 -563 -145 -747
-21 -226 -17 -253 38 -300 54 -47 82 -54 108 -26 11 11 24 21 29 21 24 0 31
52 34 253 5 264 38 592 88 854 20 107 21 114 4 132 -29 31 -54 32 -86 3z"/>
<path d="M7958 8013 c-64 -44 -153 -202 -213 -380 -16 -46 -30 -81 -32 -79 -3
2 0 47 6 100 19 171 10 206 -56 219 -29 6 -32 3 -47 -33 -57 -143 -159 -1107
-129 -1220 10 -38 82 -98 120 -99 30 -1 39 20 47 109 8 81 34 262 67 455 59
350 212 809 261 779 15 -10 1 -109 -28 -199 -22 -67 -24 -82 -13 -107 16 -40
46 -57 94 -55 36 2 42 6 59 41 52 106 75 323 42 399 -31 74 -120 109 -178 70z"/>
<path d="M2098 7983 c-30 -32 -114 -237 -216 -528 -168 -480 -298 -917 -443
-1490 -26 -104 -48 -187 -48 -184 -21 196 -102 714 -152 965 -54 274 -120 504
-145 504 -17 0 -74 -25 -74 -32 0 -4 -7 -5 -15 -2 -9 4 -15 0 -15 -10 0 -11
-9 -16 -29 -16 -24 0 -32 -7 -49 -42 -19 -37 -20 -44 -7 -74 35 -85 143 -608
230 -1118 24 -143 56 -311 70 -373 14 -61 25 -120 25 -131 0 -11 9 -30 19 -44
18 -22 25 -24 78 -20 43 3 64 10 84 28 14 13 30 24 37 24 13 0 31 60 62 200
119 541 449 1632 646 2133 41 104 74 195 74 203 0 10 -12 14 -39 14 -22 0 -43
5 -46 10 -10 16 -19 12 -47 -17z"/>
<path d="M3262 7903 c-7 -3 -22 -23 -33 -45 -52 -102 -103 -271 -284 -933 -32
-115 -60 -216 -64 -222 -4 -7 -15 53 -25 135 -46 375 -111 652 -152 652 -8 0
-14 -7 -14 -15 0 -8 -7 -15 -15 -15 -8 0 -15 -7 -15 -15 0 -8 -9 -15 -20 -15
-11 0 -20 -6 -20 -13 0 -7 -16 -19 -35 -26 -19 -7 -35 -16 -35 -20 0 -5 9 -28
19 -52 51 -115 139 -563 172 -874 6 -60 15 -120 20 -132 9 -24 39 -32 39 -10
0 6 5 4 11 -6 8 -14 14 -16 25 -6 8 6 14 20 14 30 0 14 7 19 28 19 30 1 72 31
72 52 0 17 207 704 369 1228 34 107 61 200 61 207 0 23 -32 45 -56 39 -13 -4
-24 -3 -24 2 0 16 -25 40 -38 35z"/>
<path d="M6555 7815 c-45 -20 -116 -129 -149 -229 -21 -62 -11 -98 48 -160 53
-58 81 -60 136 -10 32 29 45 53 67 118 43 132 34 243 -23 281 -28 18 -39 18
-79 0z"/>
<path d="M7047 7365 c-11 -26 -9 -29 21 -43 65 -28 104 -160 104 -352 0 -269
-76 -527 -189 -636 -75 -73 -109 -68 -156 21 -18 34 -22 61 -25 175 -3 117 0
150 21 245 14 61 39 147 57 192 34 90 116 232 157 275 l26 28 -18 39 c-23 52
-40 57 -86 26 -122 -80 -268 -375 -304 -615 -34 -221 0 -382 100 -482 120
-119 260 -106 402 38 76 77 141 205 179 350 53 203 42 493 -23 623 -25 50 -35
60 -93 89 -79 40 -164 53 -173 27z"/>
<path d="M2442 7307 c-22 -23 -83 -259 -156 -599 -37 -173 -73 -501 -62 -563
8 -41 41 -79 90 -106 41 -22 66 -19 66 6 0 8 7 15 15 15 8 0 22 12 32 26 14
23 17 47 15 158 -5 209 40 669 88 917 25 128 24 125 0 149 -26 26 -61 25 -88
-3z"/>
<path d="M6125 7168 c-74 -86 -153 -244 -210 -419 l-28 -85 -48 -18 c-101 -35
-225 -168 -288 -308 -82 -181 -83 -424 -1 -543 22 -32 92 -82 127 -91 1 0 -15
-40 -36 -90 -21 -49 -44 -112 -51 -140 -12 -47 -11 -55 6 -85 28 -48 93 -90
148 -96 l46 -6 133 133 c186 187 230 215 281 177 44 -32 25 -215 -40 -376 -77
-191 -290 -505 -385 -568 l-40 -26 -27 20 c-40 29 -49 78 -29 158 27 110 164
363 227 420 l22 20 -3 -50 c-4 -45 -2 -50 16 -47 54 9 104 80 105 149 0 36
-42 93 -69 93 -60 0 -214 -126 -282 -230 l-32 -50 -21 37 c-15 26 -40 48 -81
71 -53 29 -67 32 -125 29 -105 -4 -178 -45 -310 -172 -61 -59 -114 -105 -117
-101 -7 7 30 109 71 195 22 44 55 89 102 136 103 102 155 202 210 403 21 76
27 119 27 202 0 127 -22 196 -83 256 -22 21 -40 43 -40 47 0 17 85 204 152
334 72 141 83 186 50 216 -27 24 -34 22 -81 -25 -73 -74 -160 -243 -217 -420
-25 -77 -32 -89 -59 -99 -126 -47 -238 -164 -311 -323 -55 -120 -74 -335 -40
-447 20 -66 72 -131 127 -160 21 -10 39 -23 39 -27 0 -5 -16 -45 -35 -89 -48
-112 -62 -173 -45 -212 23 -56 129 -118 179 -106 15 4 88 67 166 144 162 160
177 171 226 171 53 0 64 -19 63 -109 -2 -129 -50 -278 -141 -436 -134 -232
-292 -425 -346 -425 -38 0 -67 43 -67 97 0 92 97 308 201 449 49 67 64 69 55
9 -7 -42 -6 -45 14 -45 52 0 121 115 105 177 -8 34 -41 63 -70 63 -68 0 -200
-110 -288 -239 -136 -202 -172 -388 -96 -504 31 -46 166 -137 205 -137 45 0
149 67 230 148 83 84 185 230 240 345 34 71 38 76 50 58 12 -17 70 -58 138
-98 117 -70 385 178 531 490 110 237 143 464 82 571 -16 27 -40 48 -87 73 -57
30 -72 34 -120 30 -100 -8 -175 -52 -305 -177 -64 -62 -118 -110 -121 -107 -8
8 12 67 59 172 32 73 51 101 102 150 78 76 134 162 175 268 55 145 74 232 75
347 0 132 -19 193 -82 258 l-44 47 28 70 c15 38 65 144 110 234 59 116 83 175
83 201 0 73 -50 81 -105 18z m-283 -713 c-2 -41 -2 -75 2 -75 4 0 22 6 40 14
24 10 38 25 47 50 7 20 16 36 20 36 15 0 21 -109 10 -181 -36 -230 -185 -489
-275 -477 -51 7 -62 202 -21 364 30 119 89 246 140 303 21 22 38 41 40 41 1 0
0 -34 -3 -75z m-716 -414 c-7 -36 -6 -57 2 -75 11 -24 12 -24 42 -9 21 10 38
30 49 57 15 34 19 38 24 21 26 -91 7 -229 -53 -378 -59 -146 -126 -237 -197
-270 -32 -14 -49 10 -64 94 -21 116 14 296 86 444 41 84 97 165 114 165 4 0 3
-22 -3 -49z"/>
<path d="M6467 7058 c-22 -20 -33 -51 -72 -213 -86 -354 -123 -545 -140 -725
-20 -204 -16 -253 22 -292 15 -15 32 -28 39 -28 6 0 17 -7 24 -15 18 -22 51
-19 57 5 3 11 13 20 23 20 32 0 43 47 41 190 -3 212 43 676 90 913 22 115 19
144 -17 157 -35 14 -37 13 -67 -12z"/>
<path d="M4395 5822 c-177 -84 -328 -305 -379 -556 -21 -97 -16 -116 29 -116
l33 0 17 78 c21 96 54 177 106 264 46 78 134 177 186 209 31 19 39 20 75 10
71 -22 94 -116 67 -282 -12 -68 -13 -69 -49 -79 -159 -43 -423 -350 -485 -565
-55 -188 21 -373 153 -375 68 0 116 56 219 255 62 119 62 120 63 77 0 -32 6
-49 25 -67 25 -26 50 -32 60 -15 3 6 15 10 25 10 10 0 22 4 25 10 13 20 114
550 131 680 23 184 16 281 -25 365 -43 87 -76 109 -166 113 -52 2 -80 -2 -110
-16z m75 -653 c-70 -207 -295 -596 -332 -573 -16 10 -2 140 21 202 28 76 95
195 145 261 46 60 175 185 183 178 2 -3 -6 -33 -17 -68z"/>
<path d="M9096 5473 c-6 -14 -5 -15 5 -6 7 7 10 15 7 18 -3 3 -9 -2 -12 -12z"/>
<path d="M9053 5456 c4 -10 7 -22 7 -27 0 -5 4 -9 10 -9 14 0 6 43 -10 48 -9
3 -11 -1 -7 -12z"/>
<path d="M8445 3490 c-67 -14 -157 -51 -152 -63 2 -7 26 -72 53 -145 57 -153
45 -148 171 -86 113 54 146 124 105 217 -31 70 -89 95 -177 77z"/>
<path d="M7295 3040 c4 -30 12 -144 19 -252 7 -109 15 -201 19 -204 5 -5 239
75 270 93 4 3 -14 32 -41 66 -52 66 -88 112 -191 248 -35 46 -68 88 -73 94 -5
6 -6 -13 -3 -45z"/>
<path d="M4930 2186 c-210 -43 -281 -219 -190 -469 73 -201 179 -295 316 -284
119 9 227 83 259 176 31 91 9 230 -59 373 -79 167 -185 233 -326 204z"/>
<path d="M8859 1847 c-125 -84 -23 -279 119 -225 46 17 82 69 82 117 -1 104
-115 166 -201 108z"/>
<path d="M7545 1351 c-79 -33 -93 -157 -25 -215 106 -89 254 24 194 149 -29
62 -105 92 -169 66z"/>
<path d="M8003 1521 c-123 -56 -80 -241 56 -241 53 0 84 18 106 60 35 68 9
147 -60 180 -50 24 -50 24 -102 1z"/>
</g>
</svg>
